<mxfile host="app.diagrams.net" modified="2024-06-30T08:19:44.247Z" agent="Mozilla/5.0 (Macintosh; Intel Mac OS X 10_15_7) AppleWebKit/537.36 (KHTML, like Gecko) Chrome/126.0.0.0 Safari/537.36" version="24.6.4" etag="_IGwFEj9WVtoFeDBG22U" type="github">
  <diagram name="第 1 页" id="JOQIb4T1xH6sEigbo4uE">
    <mxGraphModel>
      <root>
        <mxCell id="0" />
        <mxCell id="1" parent="0" />
      </root>
    </mxGraphModel>
  </diagram>
</mxfile>
